<?xml version="1.0" encoding="UTF-8"?>
<svg width="37px" height="37px" viewBox="0 0 37 37" version="1.1" xmlns="http://www.w3.org/2000/svg" xmlns:xlink="http://www.w3.org/1999/xlink">
    <title>partly-cloudy</title>
    <g id="Page-1" stroke="none" stroke-width="1" fill="none" fill-rule="evenodd">
        <g id="Artboard" transform="translate(-527.000000, -1140.000000)">
            <g id="partly-cloudy" transform="translate(527.672553, 1140.256502)">
                <path d="M18,29.2675012 C18.59506,29.2675012 19.0774515,29.7384766 19.0774515,30.3194542 L19.0774515,34.9480471 C19.0774515,35.5290246 18.59506,36 18,36 C17.40494,36 16.9225485,35.5290246 16.9225485,34.9480471 L16.9225485,30.3194542 C16.9225485,29.7384766 17.40494,29.2675012 18,29.2675012 Z M24.4325447,28.643332 L26.5107687,32.8034838 C26.7716258,33.325663 26.5495217,33.9554348 26.0146853,34.2101186 C25.4798489,34.4648024 24.8348119,34.2479546 24.5739547,33.7257754 L22.4957308,29.5656237 C22.2348736,29.0434445 22.4569777,28.4136726 22.9918141,28.1589888 C23.5266505,27.904305 24.1716875,28.1211529 24.4325447,28.643332 Z M13.0081859,28.1589888 C13.5430223,28.4136726 13.7651264,29.0434445 13.5042692,29.5656237 L11.4260453,33.7257754 C11.1651881,34.2479546 10.5201511,34.4648024 9.98531466,34.2101186 C9.45047826,33.9554348 9.22837419,33.325663 9.48923133,32.8034838 L11.5674553,28.643332 C11.8283125,28.1211529 12.4733495,27.904305 13.0081859,28.1589888 Z M28.5543717,24.8500394 L32.2386548,27.7629072 C32.7011032,28.1285283 32.772413,28.7909393 32.3979296,29.2424437 C32.0234462,29.693948 31.3449789,29.7635702 30.8825304,29.3979492 L27.1982474,26.4850813 C26.7357989,26.1194603 26.6644891,25.4570493 27.0389725,25.0055449 C27.4134559,24.5540405 28.0919232,24.4844183 28.5543717,24.8500394 Z M8.9610275,25.0055449 C9.3355109,25.4570493 9.26420111,26.1194603 8.80175262,26.4850813 L5.11746959,29.3979492 C4.65502111,29.7635702 3.97655376,29.693948 3.60207036,29.2424437 C3.22758696,28.7909393 3.29889676,28.1285283 3.76134524,27.7629072 L7.44562827,24.8500394 C7.90807676,24.4844183 8.5865441,24.5540405 8.9610275,25.0055449 Z M18.0478012,8.8830746 C23.204988,8.8830746 27.3857139,12.9648611 27.3857139,18 C27.3857139,23.0351389 23.204988,27.1169254 18.0478012,27.1169254 C12.8906145,27.1169254 8.70988855,23.0351389 8.70988855,18 C8.70988855,12.9648611 12.8906145,8.8830746 18.0478012,8.8830746 Z M30.5454031,19.710721 L35.1646835,20.7519278 C35.7444922,20.8826194 36.1060055,21.4474701 35.9721461,22.0135572 C35.8382867,22.5796443 35.2597445,22.9326022 34.6799358,22.8019107 L30.0606554,21.7607039 C29.4808468,21.6300124 29.1193335,21.0651617 29.2531928,20.4990745 C29.3870522,19.9329874 29.9655945,19.5800295 30.5454031,19.710721 Z M6.74680717,20.4990745 C6.88066655,21.0651617 6.51915323,21.6300124 5.93934456,21.7607039 L1.32006418,22.8019107 C0.740255519,22.9326022 0.161713264,22.5796443 0.0278538874,22.0135572 C-0.106005489,21.4474701 0.255507834,20.8826194 0.835316496,20.7519278 L5.45459688,19.710721 C6.03440554,19.5800295 6.6129478,19.9329874 6.74680717,20.4990745 Z M35.9721461,13.9864428 C36.1060055,14.5525299 35.7444922,15.1173806 35.1646835,15.2480722 L30.5454031,16.289279 C29.9655945,16.4199705 29.3870522,16.0670126 29.2531928,15.5009255 C29.1193335,14.9348383 29.4808468,14.3699876 30.0606554,14.2392961 L34.6799358,13.1980893 C35.2597445,13.0673978 35.8382867,13.4203557 35.9721461,13.9864428 Z M1.32006418,13.1980893 L5.93934456,14.2392961 C6.51915323,14.3699876 6.88066655,14.9348383 6.74680717,15.5009255 C6.6129478,16.0670126 6.03440554,16.4199705 5.45459688,16.289279 L0.835316496,15.2480722 C0.255507834,15.1173806 -0.106005489,14.5525299 0.0278538874,13.9864428 C0.161713264,13.4203557 0.740255519,13.0673978 1.32006418,13.1980893 Z M32.3979296,6.75755635 C32.772413,7.20906071 32.7011032,7.87147173 32.2386548,8.23709275 L28.5543717,11.1499606 C28.0919232,11.5155817 27.4134559,11.4459595 27.0389725,10.9944551 C26.6644891,10.5429507 26.7357989,9.88053972 27.1982474,9.5149187 L30.8825304,6.60205081 C31.3449789,6.23642978 32.0234462,6.30605198 32.3979296,6.75755635 Z M5.11746959,6.60205081 L8.80175262,9.5149187 C9.26420111,9.88053972 9.3355109,10.5429507 8.9610275,10.9944551 C8.5865441,11.4459595 7.90807676,11.5155817 7.44562827,11.1499606 L3.76134524,8.23709275 C3.29889676,7.87147173 3.22758696,7.20906071 3.60207036,6.75755635 C3.97655376,6.30605198 4.65502111,6.23642978 5.11746959,6.60205081 Z M26.0146853,1.78988137 C26.5495217,2.04456517 26.7716258,2.67433704 26.5107687,3.19651621 L24.4325447,7.35666795 C24.1716875,7.87884712 23.5266505,8.09569497 22.9918141,7.84101117 C22.4569777,7.58632737 22.2348736,6.9565555 22.4957308,6.43437633 L24.5739547,2.27422459 C24.8348119,1.75204542 25.4798489,1.53519757 26.0146853,1.78988137 Z M11.4260453,2.27422459 L13.5042692,6.43437633 C13.7651264,6.9565555 13.5430223,7.58632737 13.0081859,7.84101117 C12.4733495,8.09569497 11.8283125,7.87884712 11.5674553,7.35666795 L9.48923133,3.19651621 C9.22837419,2.67433704 9.45047826,2.04456517 9.98531466,1.78988137 C10.5201511,1.53519757 11.1651881,1.75204542 11.4260453,2.27422459 Z M18,0 C18.59506,0 19.0774515,0.47097537 19.0774515,1.05195293 L19.0774515,5.68054583 C19.0774515,6.26152339 18.59506,6.73249876 18,6.73249876 C17.40494,6.73249876 16.9225485,6.26152339 16.9225485,5.68054583 L16.9225485,1.05195293 C16.9225485,0.47097537 17.40494,0 18,0 Z" id="Shape-Copy" fill="#E8DDB5"></path>
                <path d="M20.4300111,16.7434982 C23.6138812,16.7434982 26.347466,18.6506483 27.5270639,21.3731261 C27.6728881,21.3642768 27.820168,21.359937 27.9684726,21.359937 C32.032722,21.359937 35.327447,24.6192005 35.327447,28.6397059 C35.327447,32.1111777 32.8711256,35.0151198 29.5840126,35.7434982 L11.6353832,35.6989846 C9.14917634,35.0034782 7.327447,32.7422675 7.327447,30.0601486 C7.327447,27.0031252 9.69404956,24.4929021 12.713731,24.2245602 C12.796323,20.0790215 16.2194023,16.7434982 20.4300111,16.7434982 Z" id="Shape-Copy-2" fill="#94B8D1"></path>
            </g>
        </g>
    </g>
</svg>