<?xml version="1.0" encoding="UTF-8"?>
<svg width="24px" height="24px" viewBox="0 0 24 24" version="1.1" xmlns="http://www.w3.org/2000/svg" xmlns:xlink="http://www.w3.org/1999/xlink">
    <title>phone</title>
    <g id="Page-1" stroke="none" stroke-width="1" fill="none" fill-rule="evenodd">
        <g id="Artboard" transform="translate(-617.000000, -1213.000000)" fill="#333333" fill-rule="nonzero">
            <path d="M629,1213 C635.627417,1213 641,1218.37258 641,1225 C641,1231.62742 635.627417,1237 629,1237 C622.372583,1237 617,1231.62742 617,1225 C617,1218.37258 622.372583,1213 629,1213 Z M629,1213.75 C622.786797,1213.75 617.75,1218.7868 617.75,1225 C617.75,1231.2132 622.786797,1236.25 629,1236.25 C635.213203,1236.25 640.25,1231.2132 640.25,1225 C640.25,1218.7868 635.213203,1213.75 629,1213.75 Z M624.625601,1217.91396 L626.941457,1221.99309 C625.880906,1222.74334 625.785729,1223.98403 626.655924,1225.71516 L626.73176,1225.86262 C626.796871,1225.98648 626.86677,1226.11277 626.941457,1226.24149 C628.106569,1228.24953 629.345941,1229.01642 630.659573,1228.54216 L632.975264,1232.621 C632.303095,1233.20389 631.485107,1233.41196 630.5213,1233.2452 C630.217701,1233.19267 629.871057,1233.04575 629.494052,1232.81283 L629.385521,1232.74395 C629.257964,1232.66087 629.127167,1232.56833 628.993601,1232.46663 L628.878448,1232.37723 C628.666132,1232.20923 628.447309,1232.01885 628.223801,1231.80728 L628.101434,1231.68978 L628.039923,1231.62947 L628.039923,1231.62947 L627.916286,1231.50576 L627.854176,1231.44236 L627.69812,1231.27943 L627.69812,1231.27943 L627.541049,1231.11022 L627.414747,1230.97039 L627.287944,1230.82664 C627.266772,1230.80236 627.245581,1230.77791 627.224374,1230.75331 L627.033095,1230.52756 L627.033095,1230.52756 L626.905181,1230.37231 L626.777028,1230.21332 L626.648702,1230.05062 L626.584494,1229.9679 L626.584494,1229.9679 L626.456032,1229.79973 L626.327561,1229.62797 L626.199147,1229.45266 L626.03881,1229.2286 L626.03881,1229.2286 L625.878794,1228.99914 L625.814906,1228.90587 L625.814906,1228.90587 L625.655553,1228.669 L625.655553,1228.669 L625.496829,1228.42695 L625.370389,1228.22962 L625.244499,1228.02907 L625.18178,1227.9276 L625.056839,1227.7223 L624.932612,1227.51388 L624.932612,1227.51388 L624.809165,1227.30239 C624.747647,1227.19589 624.686447,1227.08825 624.625601,1226.97949 C624.503909,1226.76199 624.388369,1226.5477 624.278793,1226.33677 L624.171198,1226.12696 L624.118878,1226.02291 L624.118878,1226.02291 L624.017168,1225.81652 L623.91933,1225.61246 C623.855385,1225.47719 623.793994,1225.3435 623.7351,1225.21142 L623.648625,1225.01451 L623.565854,1224.82005 L623.565854,1224.82005 L623.486745,1224.62807 C623.409454,1224.43735 623.337594,1224.2504 623.270977,1224.06736 L623.190422,1223.84062 L623.190422,1223.84062 L623.115247,1223.61803 C623.086242,1223.52983 623.058509,1223.44263 623.032024,1223.35647 L622.98071,1223.18552 C622.972433,1223.15726 622.964293,1223.12912 622.956288,1223.10109 L622.909889,1222.93431 C622.880035,1222.82407 622.85233,1222.7157 622.826718,1222.60926 L622.789864,1222.45105 C622.772215,1222.37267 622.755728,1222.29539 622.740379,1222.21922 L622.711192,1222.06837 C622.688122,1221.94391 622.668172,1221.82258 622.65123,1221.70445 L622.632339,1221.56425 L622.616295,1221.42716 L622.609327,1221.35979 L622.609327,1221.35979 L622.594943,1221.19485 L622.594943,1221.19485 L622.584829,1221.0349 C622.572019,1220.78304 622.57529,1220.55063 622.593139,1220.33886 L622.603271,1220.2347 C622.637271,1219.9274 622.703506,1219.66696 622.796898,1219.45732 C623.142796,1218.68086 623.752364,1218.16641 624.625601,1217.91396 Z M633.111538,1227.17644 L635.361538,1231.07356 C635.516868,1231.3426 635.424688,1231.68662 635.155649,1231.84195 L634.01899,1232.4982 C633.749951,1232.65353 633.405931,1232.56135 633.250601,1232.29231 L631.000601,1228.39519 C630.845271,1228.12615 630.937451,1227.78213 631.20649,1227.6268 L632.343149,1226.97055 C632.612188,1226.81522 632.956208,1226.9074 633.111538,1227.17644 Z M627.017788,1216.65132 L629.174038,1220.38606 C629.329368,1220.6551 629.237188,1220.99912 628.968149,1221.15445 L627.83149,1221.8107 C627.562451,1221.96603 627.218431,1221.87385 627.063101,1221.60481 L624.906851,1217.87007 C624.751521,1217.60103 624.843701,1217.25701 625.11274,1217.10168 L626.249399,1216.44543 C626.518438,1216.2901 626.862458,1216.38228 627.017788,1216.65132 Z" id="phone"></path>
        </g>
    </g>
</svg>