<?xml version="1.0" encoding="UTF-8"?>
<svg width="37px" height="37px" viewBox="0 0 37 37" version="1.1" xmlns="http://www.w3.org/2000/svg" xmlns:xlink="http://www.w3.org/1999/xlink">
    <title>sunny</title>
    <g id="Page-1" stroke="none" stroke-width="1" fill="none" fill-rule="evenodd">
        <g id="Artboard" transform="translate(-482.000000, -1140.000000)" fill="#E8DDB5">
            <path d="M500.672553,1169.524 C501.267613,1169.524 501.750004,1169.99498 501.750004,1170.57596 L501.750004,1175.20455 C501.750004,1175.78553 501.267613,1176.2565 500.672553,1176.2565 C500.077493,1176.2565 499.595102,1175.78553 499.595102,1175.20455 L499.595102,1170.57596 C499.595102,1169.99498 500.077493,1169.524 500.672553,1169.524 Z M507.105098,1168.89983 L509.183322,1173.05999 C509.444179,1173.58216 509.222075,1174.21194 508.687238,1174.46662 C508.152402,1174.7213 507.507365,1174.50446 507.246508,1173.98228 L505.168284,1169.82213 C504.907427,1169.29995 505.129531,1168.67017 505.664367,1168.41549 C506.199203,1168.16081 506.844241,1168.37765 507.105098,1168.89983 Z M495.680739,1168.41549 C496.215575,1168.67017 496.437679,1169.29995 496.176822,1169.82213 L494.098598,1173.98228 C493.837741,1174.50446 493.192704,1174.7213 492.657868,1174.46662 C492.123031,1174.21194 491.900927,1173.58216 492.161784,1173.05999 L494.240008,1168.89983 C494.500865,1168.37765 495.145903,1168.16081 495.680739,1168.41549 Z M511.226925,1165.10654 L514.911208,1168.01941 C515.373656,1168.38503 515.444966,1169.04744 515.070483,1169.49895 C514.695999,1169.95045 514.017532,1170.02007 513.555083,1169.65445 L509.8708,1166.74158 C509.408352,1166.37596 509.337042,1165.71355 509.711526,1165.26205 C510.086009,1164.81054 510.764476,1164.74092 511.226925,1165.10654 Z M491.63358,1165.26205 C492.008064,1165.71355 491.936754,1166.37596 491.474306,1166.74158 L487.790023,1169.65445 C487.327574,1170.02007 486.649107,1169.95045 486.274623,1169.49895 C485.90014,1169.04744 485.97145,1168.38503 486.433898,1168.01941 L490.118181,1165.10654 C490.58063,1164.74092 491.259097,1164.81054 491.63358,1165.26205 Z M500.720354,1149.13958 C505.877541,1149.13958 510.058267,1153.22136 510.058267,1158.2565 C510.058267,1163.29164 505.877541,1167.37343 500.720354,1167.37343 C495.563167,1167.37343 491.382442,1163.29164 491.382442,1158.2565 C491.382442,1153.22136 495.563167,1149.13958 500.720354,1149.13958 Z M513.217956,1159.96722 L517.837237,1161.00843 C518.417045,1161.13912 518.778558,1161.70397 518.644699,1162.27006 C518.51084,1162.83615 517.932297,1163.1891 517.352489,1163.05841 L512.733208,1162.01721 C512.1534,1161.88651 511.791886,1161.32166 511.925746,1160.75558 C512.059605,1160.18949 512.638147,1159.83653 513.217956,1159.96722 Z M489.41936,1160.75558 C489.55322,1161.32166 489.191706,1161.88651 488.611898,1162.01721 L483.992617,1163.05841 C483.412809,1163.1891 482.834266,1162.83615 482.700407,1162.27006 C482.566548,1161.70397 482.928061,1161.13912 483.507869,1161.00843 L488.12715,1159.96722 C488.706959,1159.83653 489.285501,1160.18949 489.41936,1160.75558 Z M518.644699,1154.24294 C518.778558,1154.80903 518.417045,1155.37388 517.837237,1155.50457 L513.217956,1156.54578 C512.638147,1156.67647 512.059605,1156.32351 511.925746,1155.75743 C511.791886,1155.19134 512.1534,1154.62649 512.733208,1154.4958 L517.352489,1153.45459 C517.932297,1153.3239 518.51084,1153.67686 518.644699,1154.24294 Z M483.992617,1153.45459 L488.611898,1154.4958 C489.191706,1154.62649 489.55322,1155.19134 489.41936,1155.75743 C489.285501,1156.32351 488.706959,1156.67647 488.12715,1156.54578 L483.507869,1155.50457 C482.928061,1155.37388 482.566548,1154.80903 482.700407,1154.24294 C482.834266,1153.67686 483.412809,1153.3239 483.992617,1153.45459 Z M515.070483,1147.01406 C515.444966,1147.46556 515.373656,1148.12797 514.911208,1148.49359 L511.226925,1151.40646 C510.764476,1151.77208 510.086009,1151.70246 509.711526,1151.25096 C509.337042,1150.79945 509.408352,1150.13704 509.8708,1149.77142 L513.555083,1146.85855 C514.017532,1146.49293 514.695999,1146.56255 515.070483,1147.01406 Z M487.790023,1146.85855 L491.474306,1149.77142 C491.936754,1150.13704 492.008064,1150.79945 491.63358,1151.25096 C491.259097,1151.70246 490.58063,1151.77208 490.118181,1151.40646 L486.433898,1148.49359 C485.97145,1148.12797 485.90014,1147.46556 486.274623,1147.01406 C486.649107,1146.56255 487.327574,1146.49293 487.790023,1146.85855 Z M508.687238,1142.04638 C509.222075,1142.30107 509.444179,1142.93084 509.183322,1143.45302 L507.105098,1147.61317 C506.844241,1148.13535 506.199203,1148.3522 505.664367,1148.09751 C505.129531,1147.84283 504.907427,1147.21306 505.168284,1146.69088 L507.246508,1142.53073 C507.507365,1142.00855 508.152402,1141.7917 508.687238,1142.04638 Z M494.098598,1142.53073 L496.176822,1146.69088 C496.437679,1147.21306 496.215575,1147.84283 495.680739,1148.09751 C495.145903,1148.3522 494.500865,1148.13535 494.240008,1147.61317 L492.161784,1143.45302 C491.900927,1142.93084 492.123031,1142.30107 492.657868,1142.04638 C493.192704,1141.7917 493.837741,1142.00855 494.098598,1142.53073 Z M500.672553,1140.2565 C501.267613,1140.2565 501.750004,1140.72748 501.750004,1141.30845 L501.750004,1145.93705 C501.750004,1146.51803 501.267613,1146.989 500.672553,1146.989 C500.077493,1146.989 499.595102,1146.51803 499.595102,1145.93705 L499.595102,1141.30845 C499.595102,1140.72748 500.077493,1140.2565 500.672553,1140.2565 Z" id="sunny"></path>
        </g>
    </g>
</svg>