<?xml version="1.0" encoding="UTF-8"?>
<svg width="24px" height="24px" viewBox="0 0 24 24" version="1.1" xmlns="http://www.w3.org/2000/svg" xmlns:xlink="http://www.w3.org/1999/xlink">
    <title>email</title>
    <g id="Page-1" stroke="none" stroke-width="1" fill="none" fill-rule="evenodd">
        <g id="Artboard" transform="translate(-576.000000, -1213.000000)" fill="#333333" fill-rule="nonzero">
            <path d="M588,1213 C594.627417,1213 600,1218.37258 600,1225 C600,1231.62742 594.627417,1237 588,1237 C581.372583,1237 576,1231.62742 576,1225 C576,1218.37258 581.372583,1213 588,1213 Z M588,1213.60606 C581.707301,1213.60606 576.606061,1218.7073 576.606061,1225 C576.606061,1231.2927 581.707301,1236.39394 588,1236.39394 C594.292699,1236.39394 599.393939,1231.2927 599.393939,1225 C599.393939,1218.7073 594.292699,1213.60606 588,1213.60606 Z M589.823758,1225.90909 L595.878788,1230.93939 L580.121212,1230.93939 L586.176121,1225.90909 L588,1227.42424 L589.823758,1225.90909 Z M596.848485,1219.90909 L596.848485,1230.09091 L590.909091,1225 L596.848485,1219.90909 Z M579.151515,1219.90909 L585.090909,1225 L579.151515,1230.09091 L579.151515,1219.90909 Z M595.878788,1219.06061 L588,1225.60606 L580.121212,1219.06061 L595.878788,1219.06061 Z" id="email"></path>
        </g>
    </g>
</svg>